<svg xmlns="http://www.w3.org/2000/svg" id="svg6485" width="16" height="16" version="1.1" viewBox="0 0 16 16"><g id="layer1" transform="translate(0 -1036.362)"><path style="line-height:normal;text-indent:0;text-align:start;text-decoration-line:none;text-decoration-style:solid;text-decoration-color:#000;text-transform:none;white-space:normal;isolation:auto;mix-blend-mode:normal;solid-color:#000;solid-opacity:1" id="path6680" fill="#000" fill-opacity="1" fill-rule="nonzero" stroke="none" stroke-dasharray="none" stroke-dashoffset="6" stroke-linecap="butt" stroke-linejoin="miter" stroke-miterlimit="4" stroke-opacity="1" stroke-width="1" d="m 5.1132851,1037.9687 c -2.2583001,0 -4.1093801,1.8549 -4.1093801,4.1171 0,1.2831 0.74616,2.4022 1.90821,3.6602 1.16204,1.258 2.7828,2.6994 4.73437,4.6563 l 0.35352,0.3535 0.35351,-0.3535 c 1.95837,-1.9572 3.57765,-3.398 4.73828,-4.6563 1.16063,-1.2583 1.9043,-2.3781 1.9043,-3.6602 0,-2.2622 -1.85108,-4.1171 -4.10937,-4.1171 -1.27801,0 -2.1965,0.7461 -2.88672,1.6464 -0.69019,-0.8998 -1.6092099,-1.6464 -2.8867199,-1.6464 z m 0,1 c 1.0992499,0 1.8800199,0.6721 2.4589799,1.6367 l 0.42774,0.7148 0.42968,-0.7148 c 0.57897,-0.9646 1.35779,-1.6367 2.45704,-1.6367 1.71114,0 3.10937,1.399 3.10937,3.1171 0,0.8894 -0.53552,1.7846 -1.63867,2.9804 -1.02033,1.1062 -2.57629,2.523 -4.35742,4.2814 -1.7761699,-1.7584 -3.3295999,-3.1749 -4.35157,-4.2814 -1.10497,-1.1962 -1.64453,-2.0921 -1.64453,-2.9804 0,-1.7181 1.39823,-3.1171 3.1093801,-3.1171 z" baseline-shift="baseline" clip-rule="nonzero" color="#000" color-interpolation="sRGB" color-interpolation-filters="linearRGB" color-rendering="auto" direction="ltr" display="inline" enable-background="accumulate" font-family="sans-serif" font-size="medium" font-stretch="normal" font-style="normal" font-variant="normal" font-weight="400" image-rendering="auto" letter-spacing="normal" opacity="1" overflow="visible" shape-rendering="auto" text-anchor="start" text-decoration="none" text-rendering="auto" visibility="visible" word-spacing="normal" writing-mode="lr-tb"/></g></svg>